<?xml version="1.0" encoding="UTF-8"?>
<svg
  xmlns="http://www.w3.org/2000/svg"
  viewBox="0 0 64 64"
  width="64"
  height="64"
>
  <!-- Fondo -->
  <defs>
    <linearGradient id="bg" x1="0" y1="0" x2="1" y2="1">
      <stop offset="0%" stop-color="#5B7CFA" />
      <stop offset="100%" stop-color="#7A4CC2" />
    </linearGradient>
  </defs>

  <rect x="0" y="0" width="64" height="64" rx="12" fill="url(#bg)" />

  <!-- Cuadrícula -->
  <g transform="translate(10,10)" fill="#6E3FA9">
    <!-- fila 1 -->
    <rect x="0" y="0" width="12" height="12" rx="2" fill="#ffffff" />
    <rect x="14" y="0" width="12" height="12" rx="2" />
    <rect x="28" y="0" width="12" height="12" rx="2" fill="#ffffff" />

    <!-- fila 2 -->
    <rect x="0" y="14" width="12" height="12" rx="2" />
    <rect x="14" y="14" width="12" height="12" rx="2" />
    <rect x="28" y="14" width="12" height="12" rx="2" />

    <!-- fila 3 -->
    <rect x="0" y="28" width="12" height="12" rx="2" fill="#ffffff" />
    <rect x="14" y="28" width="12" height="12" rx="2" />
    <rect x="28" y="28" width="12" height="12" rx="2" fill="#ffffff" />
  </g>

  <!-- Letras -->
  <g
    font-family="Arial, Helvetica, sans-serif"
    font-size="8"
    font-weight="700"
    fill="#ffffff"
    text-anchor="middle"
    dominant-baseline="middle"
  >
    <text x="30" y="16">C</text>
    <text x="30" y="30">O</text>
    <text x="30" y="44">S</text>

    <text x="16" y="30">H</text>
    <text x="44" y="30">G</text>
  </g>
</svg>